<svg xmlns="http://www.w3.org/2000/svg" width="43" height="43" viewBox="0 0 43 43"><g transform="translate(-937.946 63.788)"><path d="M1057.148,9.571a1.259,1.259,0,0,0,2.184-.017C1059.606,12.319,1057.034,12.749,1057.148,9.571Zm13.717,0a1.259,1.259,0,0,0,2.184-.017C1073.323,12.319,1070.751,12.749,1070.864,9.571Zm1.091-7.479h0a1.1,1.1,0,0,1,1.095,1.095V8.918a1.1,1.1,0,0,1-1.095,1.095h0a1.1,1.1,0,0,1-1.095-1.095V3.187a1.1,1.1,0,0,1,1.095-1.095Zm-13.714,0h0a1.1,1.1,0,0,1,1.095,1.095V8.918a1.1,1.1,0,0,1-1.095,1.095h0a1.1,1.1,0,0,1-1.095-1.095V3.187a1.1,1.1,0,0,1,1.095-1.095Zm10.654-11.63c-2.159.466-1.671,4.038.763,3.532C1071.8-6.452,1071.28-10.053,1068.895-9.539Zm-8.82,0c-2.159.466-1.671,4.038.763,3.532C1062.983-6.452,1062.459-10.053,1060.075-9.539Zm4.261-1.437h-8.344v7.149h17.641l.08-7.149h-8.345v-2.149c.044-.335.1-.248.306-.488a1.067,1.067,0,0,0-.787-1.732,1.069,1.069,0,0,0-.9,1.689c.366.473.35.1.344,1.168,0,.5,0,1.008,0,1.512Zm-8.17,7.558,3.976,4.488h9.533l3.849-4.493-17.358,0Zm3.983,14.463,4.713,8.642-.084-4.4-1.707-4.3V3.244c.526-.069,3.344-.025,4.09-.024l-.028,7.813L1065.3,15.3l-.089,4.39,4.844-8.654v-9h-9.923l.016,9.012Z" transform="translate(-105.045 -44.443)" fill="#0097a8" fill-rule="evenodd"/><path d="M0,0H43V43H0Z" transform="translate(937.946 -63.788)" fill="none"/></g></svg>